<svg xmlns="http://www.w3.org/2000/svg" width="252" height="236" viewBox="0 0 252 236">
    <g fill="none" fill-rule="evenodd">
        <path fill="#F7C592" d="M191.823 4.093H25.13C13.6 4.093 4.093 13.45 4.093 24.981v9.328c0 11.532 9.507 21.245 21.038 21.245H26.9v176.02h162.57V55.554h2.353c11.532 0 21.038-9.713 21.038-21.245V24.98c0-11.532-9.506-20.888-21.038-20.888"/>
        <path fill="#000" d="M26.9 235.668a4.093 4.093 0 0 1-4.093-4.094V59.54c-5.8-.546-11.21-3.128-15.433-7.407C2.62 47.312 0 40.982 0 34.309V24.98C0 11.206 11.274 0 25.132 0h36.27a4.093 4.093 0 1 1 0 8.187h-36.27c-9.343 0-16.945 7.534-16.945 16.794v9.328c0 9.297 7.76 17.152 16.945 17.152H26.9a4.093 4.093 0 0 1 4.094 4.093v171.927h154.382V55.554a4.093 4.093 0 0 1 4.094-4.093h2.352c9.186 0 16.946-7.855 16.946-17.152v-9.163a4.093 4.093 0 1 1 8.187 0v9.163c0 6.673-2.62 13.002-7.375 17.823-4.364 4.422-9.997 7.032-16.017 7.455v171.987a4.093 4.093 0 0 1-4.093 4.094H26.9z"/>
        <path fill="#F9C791" d="M245.609 24.982v9.327c0 11.532-9.509 21.246-21.04 21.246h-2.351v176.02H59.648V55.554h-1.766c-11.532 0-21.04-9.714-21.04-21.246v-9.327c0-11.532 9.508-20.888 21.04-20.888h166.686c11.532 0 21.04 9.356 21.04 20.888"/>
        <path fill="#F9DDBB" d="M246.194 24.982v9.327c0 11.532-9.509 21.246-21.04 21.246h-2.352v176.02H84.21V55.554h-1.766c-11.532 0-21.04-9.714-21.04-21.246v-9.327c0-11.532 9.508-20.888 21.04-20.888h142.71c11.532 0 21.04 9.356 21.04 20.888"/>
        <path fill="#000" d="M171.926 8.187a4.093 4.093 0 1 1 0-8.187h21.637a4.093 4.093 0 1 1 0 8.187h-21.637zM55.554 154.383V59.539c-5.798-.547-11.208-3.128-15.43-7.407-4.756-4.82-7.376-11.15-7.376-17.823v-9.326C32.748 11.207 44.023 0 57.882 0h90.068a4.093 4.093 0 1 1 0 8.187H57.882c-9.344 0-16.947 7.534-16.947 16.796v9.326c0 9.297 7.76 17.152 16.947 17.152h1.766a4.093 4.093 0 0 1 4.093 4.093v98.829a4.093 4.093 0 1 1-8.187 0zM222.218 235.668H59.648a4.093 4.093 0 0 1-4.094-4.094v-33.917a4.093 4.093 0 1 1 8.187 0v29.824h154.383V55.554a4.093 4.093 0 0 1 4.094-4.093h2.35c9.186 0 16.947-7.855 16.947-17.152v-9.326c0-9.262-7.602-16.796-16.947-16.796h-14.63a4.093 4.093 0 1 1 0-8.187h14.63c13.86 0 25.134 11.207 25.134 24.983v9.326c0 6.673-2.619 13.003-7.375 17.823-4.364 4.422-9.997 7.032-16.016 7.455v171.987a4.093 4.093 0 0 1-4.093 4.094"/>
        <path fill="#FFF" d="M126.898 25.73H84.794a4.093 4.093 0 1 1 0-8.187h42.104a4.093 4.093 0 1 1 0 8.187M159.646 25.73H147.95a4.093 4.093 0 1 1 0-8.187h11.696a4.093 4.093 0 1 1 0 8.187"/>
        <g>
            <path fill="#000" d="M52 66L35 78.98V98l20 26h67l16-21V78.98h12.043V66z"/>
            <path fill="#000" d="M243 66l9 13v19l-18 26h-60.957l-24-21V78.98H137V66z"/>
            <path stroke="#FFF" stroke-width="5" d="M49 86v9l13 18M50 79l7-5M241 97l-11 17h-10"/>
        </g>
        <g>
            <path fill="#660B3B" d="M185.628 151.395c3.977-.095-25.16-26.798-27.834-27.355-1.846-.384-6.764 2.06-9.633 3.61a4.47 4.47 0 0 1-4.322 0c-2.87-1.55-7.788-3.994-9.633-3.61-2.673.557-31.81 27.26-27.834 27.355 0 0 24.413 21.16 27.834 22.338 1.917.66 5.391-.022 8.073-.748a14.129 14.129 0 0 1 7.441 0c2.683.726 6.156 1.407 8.074.748 3.42-1.178 27.834-22.324 27.834-22.324v-.014"/>
            <path fill="#EEE" d="M152.875 149h-4.75c-1.173 0-2.125-.934-2.125-2.086V139h9v7.914c0 1.152-.952 2.086-2.125 2.086"/>
            <path fill="#FFF" d="M153.111 148h-4.222a1.883 1.883 0 0 1-1.889-1.877V139h8v7.123a1.883 1.883 0 0 1-1.889 1.877"/>
            <path fill="#EEE" d="M143.875 149h-4.75c-1.173 0-2.125-.934-2.125-2.086V139h9v7.914c0 1.152-.952 2.086-2.125 2.086"/>
            <path fill="#FFF" d="M143.111 148h-4.222c-1.043 0-1.889-.84-1.889-1.877V139h8v7.123a1.883 1.883 0 0 1-1.889 1.877"/>
            <path fill="#EEE" d="M135.111 148h-4.222a1.883 1.883 0 0 1-1.889-1.877V139h8v7.123a1.883 1.883 0 0 1-1.889 1.877"/>
            <path fill="#FFF" d="M134.347 147h-3.694a1.661 1.661 0 0 1-1.653-1.669V139h7v6.331c0 .921-.74 1.669-1.653 1.669"/>
            <path fill="#EEE" d="M161.111 148h-4.222a1.883 1.883 0 0 1-1.889-1.877V139h8v7.123a1.883 1.883 0 0 1-1.889 1.877"/>
            <path fill="#FFF" d="M160.347 147h-3.694a1.661 1.661 0 0 1-1.653-1.669V139h7v6.331c0 .921-.74 1.669-1.653 1.669"/>
            <path fill="#EEE" d="M169 142h-5v2.7c0 1.27 1.12 2.3 2.5 2.3s2.5-1.03 2.5-2.3V142"/>
            <path fill="#FFF" d="M164 142v1.95c0 1.684 1.12 3.05 2.5 3.05s2.5-1.366 2.5-3.05V142h-5"/>
            <path fill="#EEE" d="M173 142h-5v2.504c0 1.379 1.031 2.496 2.304 2.496h.392c1.273 0 2.304-1.117 2.304-2.496V142"/>
            <path fill="#FFF" d="M168 142v1.56c0 1.348 1.12 2.44 2.5 2.44s2.5-1.092 2.5-2.44V142h-5"/>
            <path fill="#EEE" d="M123 142h5v2.7c0 1.27-1.12 2.3-2.5 2.3s-2.5-1.03-2.5-2.3V142"/>
            <path fill="#FFF" d="M128 142v1.95c0 1.684-1.12 3.05-2.5 3.05s-2.5-1.366-2.5-3.05V142h5"/>
            <path fill="#EEE" d="M118 142h5v2.504c0 1.379-1.031 2.496-2.304 2.496h-.392c-1.272 0-2.304-1.117-2.304-2.496V142"/>
            <path fill="#FFF" d="M123 142v1.56c0 1.348-1.12 2.44-2.5 2.44s-2.5-1.092-2.5-2.44V142h5"/>
            <path fill="#EEE" d="M152 158h-6v-3.04c0-1.083.863-1.96 1.927-1.96h2.146c1.064 0 1.927.877 1.927 1.96V158"/>
            <path fill="#FFF" d="M147 158v-3.04c0-1.082.72-1.96 1.607-1.96h1.787c.887 0 1.606.878 1.606 1.96V158h-5"/>
            <path fill="#EEE" d="M158 158h-6v-3.04c0-1.083.863-1.96 1.927-1.96h2.146c1.064 0 1.927.877 1.927 1.96V158"/>
            <path fill="#FFF" d="M153 158v-3.04c0-1.082.72-1.96 1.606-1.96h1.788c.887 0 1.606.878 1.606 1.96V158h-5"/>
            <path fill="#EEE" d="M146 158h-6v-3.04c0-1.083.863-1.96 1.927-1.96h2.146c1.064 0 1.927.877 1.927 1.96V158"/>
            <path fill="#FFF" d="M140 158v-3.04c0-1.082.72-1.96 1.607-1.96h1.787c.887 0 1.606.878 1.606 1.96V158h-5"/>
            <path fill="#EEE" d="M138 158h-6v-3.04c0-1.083.863-1.96 1.927-1.96h2.146c1.064 0 1.927.877 1.927 1.96V158"/>
            <path fill="#FFF" d="M132 158v-3.04c0-1.082.719-1.96 1.606-1.96h1.788c.887 0 1.606.878 1.606 1.96V158h-5"/>
            <path fill="#D81B1B" d="M156.002 152.064c-5.486-.4-10.502 2.196-10.502 2.196s-5.016-2.596-10.502-2.196c-5.486.4-13.48.335-28.998-.064 0 0 24.334 21.53 27.744 22.728 1.91.671 5.374-.022 8.047-.76a13.807 13.807 0 0 1 7.417 0c2.674.738 6.137 1.431 8.048.76 3.409-1.199 27.744-22.714 27.744-22.714-15.518.399-23.512.45-28.998.05"/>
            <path fill="#E91E1E" d="M145.5 154.289s-5.016-2.629-10.502-2.225c-5.486.405-13.48.34-28.998-.064 0 0 24.334 18.511 27.744 19.725 1.91.68 5.374-.022 8.047-.77a13.643 13.643 0 0 1 7.417 0c2.674.748 6.137 1.45 8.048.77C160.665 170.51 185 152.014 185 152.014c-15.518.404-23.512.455-28.998.05-5.486-.404-10.502 2.225-10.502 2.225z"/>
            <path fill="#C21818" d="M156.002 152.065c-2.743-.204-5.369.357-7.308.97a10.49 10.49 0 0 1-6.388 0c-1.94-.613-4.565-1.174-7.308-.97-5.486.41-13.48.343-28.998-.065 15.518.408 23.512 3.731 28.998 3.322 3.19-.237 6.22.56 8.198 1.27a6.712 6.712 0 0 0 4.608 0c1.978-.71 5.008-1.507 8.198-1.27 5.486.41 13.48-2.9 28.998-3.308-15.518.408-23.512.46-28.998.051"/>
            <path fill="#E91E1E" d="M157.794 124.041c-1.846-.392-6.764 2.105-9.633 3.688a4.388 4.388 0 0 1-4.322 0c-2.87-1.583-7.788-4.08-9.633-3.688-2.673.569-31.81 27.85-27.834 27.947 15.568.38 23.588-8.491 29.092-8.87 5.504-.379 10.536 2.084 10.536 2.084s5.032-2.463 10.536-2.084c5.503.379 13.523 9.25 29.092 8.87 3.977-.097-25.16-27.378-27.834-27.947"/>
            <path fill="#D81B1B" d="M157.794 126.041c-1.846-.39-6.764 2.086-9.633 3.656a4.417 4.417 0 0 1-4.322 0c-2.87-1.57-7.788-4.046-9.633-3.656-2.673.563-31.81 25.851-27.834 25.947 15.568.376 23.588-8.419 29.092-8.794 5.504-.376 10.536 2.066 10.536 2.066s5.032-2.442 10.536-2.066c5.503.375 13.523 9.17 29.092 8.794 3.977-.096-25.16-25.384-27.834-25.947"/>
            <path fill="#AD1414" d="M156.002 143.04c-2.743-.19-5.369.334-7.308.907a11.18 11.18 0 0 1-6.388 0c-1.94-.573-4.565-1.098-7.308-.907-5.486.382-13.48 9.324-28.998 8.942 15.518.382 23.512-5.516 28.998-5.897 3.19-.222 6.22.524 8.198 1.187a7.156 7.156 0 0 0 4.608 0c1.978-.663 5.008-1.41 8.198-1.187 5.486.381 13.48 6.28 28.998 5.897-15.518.382-23.512-8.56-28.998-8.942"/>
        </g>
    </g>
</svg>
