<svg xmlns="http://www.w3.org/2000/svg" width="87" height="87" viewBox="0 0 87 87">
    <g fill="none" fill-rule="evenodd">
        <path d="M-18-16h120v120H-18z"/>
        <g fill="#FFF">
            <path d="M43.615 65.385c-1.999 0-3.615-1.616-3.615-3.616V25.615C40 23.616 41.616 22 43.615 22c2 0 3.616 1.616 3.616 3.615V61.77c0 2-1.616 3.616-3.616 3.616"/>
            <path d="M61.77 47.23H25.614c-1.999 0-3.615-1.615-3.615-3.615C22 41.616 23.616 40 25.615 40H61.77c2 0 3.616 1.616 3.616 3.615 0 2-1.616 3.616-3.616 3.616"/>
            <path d="M43.336 86.765c-11.49 0-22.364-4.446-30.626-12.711C2.696 64.043-1.715 50.192.606 36.056 3.658 17.444 18.896 2.77 37.667.361c14.965-1.909 29.589 3.822 39.14 15.355a3.615 3.615 0 1 1-5.57 4.61C63.278 10.716 51.09 5.918 38.585 7.534 22.964 9.537 10.277 21.746 7.743 37.227 5.8 49.035 9.478 60.597 17.823 68.942c8.344 8.344 19.906 12.017 31.714 10.083 15.51-2.545 28.03-15.792 29.769-31.5.405-3.613.282-7.22-.362-10.724a36.267 36.267 0 0 0-.987-4.046 3.607 3.607 0 0 1 2.397-4.515c1.91-.6 3.927.484 4.516 2.397a43.82 43.82 0 0 1 1.186 4.855c.773 4.201.922 8.522.44 12.827-2.125 19.173-16.84 34.737-35.788 37.843a45.97 45.97 0 0 1-7.372.603"/>
        </g>
    </g>
</svg>
