<svg xmlns="http://www.w3.org/2000/svg" xmlns:xlink="http://www.w3.org/1999/xlink" width="141" height="137" viewBox="0 0 141 137">
    <defs>
        <path id="a" d="M44.316 71.86c-1.39-.982-4.61-3.234-4.898-4.907-.294-1.676-.112-1.946.867-3.334l1.2-1.703c.23-.327.494-.62.781-.89 2.127-1.997 5.633-2.364 8.075-.646l33.91 23.88 2.696 1.897 37.833 26.64.849.6a4.694 4.694 0 0 1 1.981 3.787 4.668 4.668 0 0 1-1.897 3.797c-3.027 2.22-7.399 3.487-12.002 3.487-4.12 0-7.95-.984-10.78-2.778l-21.362-15.041c-.173-.106-.306-.215-.47-.321-5.554-3.649-4.928-7.813-5.97-12.773L44.315 71.86z"/>
    </defs>
    <g fill="none" fill-rule="evenodd">
        <path d="M-23-15h180v180H-23z"/>
        <g stroke="#000" transform="translate(1 3)">
            <g fill="#000" stroke-width="6">
                <path d="M123.052 101.753c2.204 0 2.194-3.203 2.194-4.415 0-.809-.396-22.614-1.188-65.417 3.11-.293 6.01-1.677 8.274-3.971 2.55-2.585 3.954-5.978 3.954-9.556v-5C136.286 6.007 130.24 0 122.81 0L97.338.377c-1.213 0-2.195 1.214-2.195 2.194 0 .981.982 2.195 2.195 2.195l25.473-.377c5.01 0 9.085 4.04 9.085 9.004v5.001c0 4.985-4.16 9.196-9.085 9.196h-.947a2.195 2.195 0 0 0-2.195 2.195l1.188 67.93c-.006 2.692.726 4.038 2.195 4.038zM59.377 4.39c3.67 0 6.644-.983 6.644-2.195C66.021.983 63.046 0 59.377 0h-35.12c-3.67 0-6.644.983-6.644 2.195 0 1.212 2.975 2.194 6.644 2.194h35.12z"/>
                <path d="M95.773 75.056V31.921c3.108-.293 6.009-1.677 8.273-3.971 2.55-2.584 3.954-5.978 3.954-9.556v-5C108 6.008 101.955 0 94.525 0h-48.29a2.195 2.195 0 1 0 0 4.39h48.29c5.01 0 9.086 4.039 9.086 9.004v5c0 4.985-4.161 9.196-9.086 9.196h-.947a2.195 2.195 0 0 0-2.195 2.195v45.271a2.195 2.195 0 1 0 4.39 0zM77.52 120.48c1.212 0 4.766.095 4.766-2.194 0-1.527-1.463-2.258-4.39-2.195l-58.555.727V29.785a2.195 2.195 0 0 0-2.194-2.195h-1.26c-4.926 0-9.087-4.211-9.087-9.196v-5c0-4.965 4.076-9.005 9.086-9.005h7.845a2.195 2.195 0 1 0 0-4.389h-7.845C8.456 0 2.411 6.008 2.411 13.394v5c0 3.578 1.404 6.972 3.954 9.556 2.34 2.37 5.36 3.77 8.587 3.997v87.066c0 1.212.982 2.194 2.195 2.194l60.373-.727z"/>
            </g>
            <use stroke-linecap="round" stroke-linejoin="round" stroke-width="10.5" transform="scale(-1 1) rotate(-76 0 198.688)" xlink:href="#a"/>
        </g>
    </g>
</svg>
