<svg xmlns="http://www.w3.org/2000/svg" width="36" height="48" viewBox="0 0 36 48">
    <g fill="none" fill-rule="evenodd">
        <path d="M-12-6h60v60h-60z"/>
        <g fill="#FFF">
            <path d="M32 18H4c-2.206 0-4-1.794-4-4v-2c0-3.308 2.692-6 6-6h24c3.308 0 6 2.692 6 6v2c0 2.206-1.796 4-4 4zM6 10c-1.104 0-2 .898-2 2v2h28.002L32 12c0-1.102-.896-2-2-2H6z"/>
            <path d="M28 48H8c-3.308 0-6-2.692-6-6V16a2 2 0 1 1 4 0v26c0 1.102.896 2 2 2h20c1.104 0 2-.898 2-2V24a2 2 0 1 1 4 0v18c0 3.308-2.692 6-6 6M10 10a2 2 0 0 1-2-2V4c0-2.206 1.794-4 4-4h12c2.204 0 4 1.794 4 4v3.666c0 1.106-.894 2-2 2-1.106 0-2-.894-2-2V4H12v4a2 2 0 0 1-2 2"/>
            <path d="M12 46a2 2 0 0 1-2-2V22a2 2 0 1 1 4 0v22a2 2 0 0 1-2 2M24 40a2 2 0 0 1-2-2V16a2 2 0 1 1 4 0v22a2 2 0 0 1-2 2"/>
        </g>
    </g>
</svg>
