<svg xmlns="http://www.w3.org/2000/svg" width="145" height="139" viewBox="0 0 145 139">
    <g fill="none" fill-rule="evenodd">
        <path fill="#FFF" d="M35.478 138.756c-2.586 0-5.154-.816-7.386-2.442-4.14-3-6.012-7.962-4.902-12.948l7.62-34.17a.615.615 0 0 0-.198-.588L4.362 65.442C.54 62.064-.864 56.946.714 52.092c1.578-4.86 5.718-8.178 10.806-8.664l34.842-3.312a.592.592 0 0 0 .51-.366L60.786 7.638C62.82 2.946 67.254.036 72.36.036h.012c5.106 0 9.534 2.916 11.562 7.602L97.86 39.75c1.308 3.042-.084 6.576-3.126 7.89-3.042 1.326-6.576-.084-7.89-3.12L72.918 12.402c-.054-.138-.156-.366-.558-.366s-.498.228-.558.372L57.888 44.52a12.639 12.639 0 0 1-10.386 7.548L12.654 55.38c-.15.012-.402.036-.528.414-.12.384.066.552.18.648l26.25 23.172a12.636 12.636 0 0 1 3.966 12.192l-7.626 34.17c-.03.144-.084.39.24.63.33.24.54.114.672.03l30.138-17.802a12.637 12.637 0 0 1 12.834 0l30.138 17.802c.126.084.336.21.672-.03.324-.24.27-.486.24-.63l-7.62-34.164a12.6 12.6 0 0 1 3.966-12.204l26.238-23.16c.12-.102.306-.27.186-.648-.132-.384-.378-.408-.528-.42l-16.668-1.584a5.997 5.997 0 0 1-5.4-6.54 5.976 5.976 0 0 1 6.54-5.406l16.662 1.578c5.088.486 9.222 3.804 10.806 8.664 1.578 4.86.174 9.972-3.654 13.35l-26.244 23.166a.618.618 0 0 0-.192.594l7.614 34.164c1.11 4.986-.762 9.948-4.902 12.948-4.134 3.012-9.426 3.258-13.818.654l-30.144-17.802a.601.601 0 0 0-.618 0L41.91 136.968c-2.022 1.194-4.23 1.788-6.432 1.788"/>
        <path d="M-15-18h180v180H-15z"/>
    </g>
</svg>
