<svg xmlns="http://www.w3.org/2000/svg" width="96" height="83" viewBox="0 0 96 83">
    <g fill="none" fill-rule="evenodd">
        <g fill="#FFF">
            <path d="M91.136 36.754a4.543 4.543 0 0 0-3.213 1.327L77.5 48.459 67.077 38.081a4.562 4.562 0 0 0-6.427 0 4.508 4.508 0 0 0 0 6.4L71.073 54.86c3.54 3.53 9.309 3.53 12.854 0L94.35 44.48a4.516 4.516 0 0 0 0-6.4 4.558 4.558 0 0 0-3.214-1.326"/>
            <path d="M41.136.544C18.577.544.227 18.82.227 41.28c0 22.464 18.35 40.736 40.91 40.736 10.354 0 20.236-3.856 27.822-10.867a4.523 4.523 0 0 0 .241-6.4 4.57 4.57 0 0 0-6.427-.24c-5.896 5.454-13.582 8.455-21.637 8.455-17.545 0-31.818-14.213-31.818-31.684 0-17.467 14.273-31.685 31.818-31.685 17.541 0 31.819 14.218 31.819 31.685 0 2.57-.31 5.114-.914 7.568a4.524 4.524 0 0 0 3.332 5.472c2.436.62 4.9-.887 5.495-3.313a40.501 40.501 0 0 0 1.177-9.727c0-22.46-18.35-40.737-40.909-40.737"/>
        </g>
        <path d="M-14-20h120v120H-14z"/>
    </g>
</svg>
