<svg xmlns="http://www.w3.org/2000/svg" width="144" height="144" viewBox="0 0 144 144">
    <g fill="none" fill-rule="evenodd">
        <path d="M-15-18h180v180H-15z"/>
        <g fill="#FFF">
            <path d="M126 144H18c-9.924 0-18-8.076-18-18V18C0 8.076 8.076 0 18 0h108c4.386 0 8.616 1.602 11.904 4.506A17.981 17.981 0 0 1 144 18v42c0 3.318-2.682 6-6 6s-6-2.682-6-6V18c0-1.722-.738-3.36-2.034-4.494A5.97 5.97 0 0 0 126 12H18c-3.312 0-6 2.688-6 6v108c0 3.312 2.688 6 6 6h108c3.312 0 6-2.688 6-6V90c0-3.318 2.682-6 6-6s6 2.682 6 6v36c0 9.924-8.076 18-18 18"/>
            <path d="M138 126a5.984 5.984 0 0 1-4.242-1.758L96.342 86.826l-26.7 31.146c-2.16 2.532-5.946 2.808-8.46.66-2.52-2.166-2.814-5.952-.654-8.466L91.44 74.1a6.025 6.025 0 0 1 4.332-2.094c1.644-.12 3.294.576 4.47 1.752l42 42a5.993 5.993 0 0 1 0 8.484A5.984 5.984 0 0 1 138 126"/>
            <path d="M7.122 120a5.975 5.975 0 0 1-3.618-1.218 5.991 5.991 0 0 1-1.158-8.4l40.872-54A5.985 5.985 0 0 1 47.958 54H48c1.854 0 3.6.858 4.734 2.316L82.47 94.554a5.992 5.992 0 0 1-1.05 8.418c-2.622 2.052-6.384 1.554-8.418-1.05L48.066 69.858l-36.162 47.76A5.977 5.977 0 0 1 7.122 120M99 66c-11.58 0-21-9.42-21-21s9.42-21 21-21 21 9.42 21 21-9.42 21-21 21zm0-30c-4.962 0-9 4.038-9 9s4.038 9 9 9 9-4.038 9-9-4.038-9-9-9z"/>
        </g>
    </g>
</svg>
