<svg xmlns="http://www.w3.org/2000/svg" width="48" height="48" viewBox="0 0 48 48">
    <g fill="none" fill-rule="evenodd">
        <path d="M-6-6h60v60H-6z"/>
        <g fill="#FFF">
            <path d="M38 48c-5.514 0-10-4.486-10-10s4.486-10 10-10c1.116 0 2.208.182 3.256.544a2 2 0 0 1-1.304 3.78A6.007 6.007 0 0 0 32 38c0 3.308 2.692 6 6 6a6.007 6.007 0 0 0 5.782-7.608 2 2 0 0 1 3.854-1.07c.24.87.364 1.77.364 2.678 0 5.514-4.486 10-10 10M8 32c-4.412 0-8-3.588-8-8s3.588-8 8-8 8 3.588 8 8-3.588 8-8 8zm0-12c-2.204 0-4 1.794-4 4s1.796 4 4 4c2.204 0 4-1.794 4-4s-1.796-4-4-4zM38 12c-3.308 0-6-2.692-6-6s2.692-6 6-6 6 2.692 6 6-2.692 6-6 6zm0-8a2 2 0 1 0 .001 4.001A2 2 0 0 0 38 4z"/>
            <path d="M13.302 23.2a2 2 0 0 1-1.066-3.694l21.16-13.318a2 2 0 1 1 2.13 3.386l-21.16 13.318c-.33.208-.7.308-1.064.308M31.048 36.08a1.99 1.99 0 0 1-.832-.182l-17.26-7.918a2.002 2.002 0 0 1-.984-2.652 2.003 2.003 0 0 1 2.654-.984l17.258 7.918a2.001 2.001 0 0 1 .986 2.652 2.005 2.005 0 0 1-1.822 1.166"/>
        </g>
    </g>
</svg>
