<svg xmlns="http://www.w3.org/2000/svg" width="107" height="92" viewBox="0 0 107 92">
    <g fill="none" fill-rule="evenodd">
        <path d="M-6-16h120v120H-6z"/>
        <g fill="#FFF">
            <path d="M90 37.143a4.452 4.452 0 0 1-3.181-1.34 4.618 4.618 0 0 1 0-6.464l10.318-10.482L86.818 8.375a4.618 4.618 0 0 1 0-6.464 4.446 4.446 0 0 1 6.364 0L103.5 12.393c3.51 3.561 3.51 9.367 0 12.928L93.181 35.803A4.452 4.452 0 0 1 90 37.143M90 92a4.452 4.452 0 0 1-3.181-1.34 4.618 4.618 0 0 1 0-6.463l10.318-10.483-10.319-10.482a4.618 4.618 0 0 1 0-6.464 4.446 4.446 0 0 1 6.364 0L103.5 67.25c3.51 3.561 3.51 9.367 0 12.928L93.181 90.661A4.452 4.452 0 0 1 90 92M49.5 50.857c-2.489 0-4.5-2.043-4.5-4.571 0-12.604-8.073-22.857-18-22.857H4.5c-2.489 0-4.5-2.044-4.5-4.572s2.011-4.571 4.5-4.571H27c14.89 0 27 14.359 27 32 0 2.528-2.011 4.571-4.5 4.571M27 78.286H4.5c-2.489 0-4.5-2.044-4.5-4.572s2.011-4.571 4.5-4.571H27c2.794 0 5.477-.8 7.965-2.377 2.101-1.33 4.882-.681 6.196 1.467 1.319 2.144.671 4.96-1.44 6.295-3.883 2.46-8.284 3.758-12.721 3.758"/>
            <path d="M94.5 78.286H72c-14.89 0-27-14.36-27-32 0-17.641 12.11-32 27-32h22.5c2.489 0 4.5 2.043 4.5 4.571 0 2.528-2.011 4.572-4.5 4.572H72c-9.927 0-18 10.253-18 22.857 0 12.603 8.073 22.857 18 22.857h22.5c2.489 0 4.5 2.043 4.5 4.571 0 2.528-2.011 4.572-4.5 4.572"/>
        </g>
    </g>
</svg>
