<svg xmlns="http://www.w3.org/2000/svg" width="147" height="153" viewBox="0 0 147 153">
    <g fill="none" fill-rule="evenodd">
        <path d="M-16-13h180v180H-16z"/>
        <g fill="#FFF" stroke="#FFF" stroke-width="3">
            <path d="M16.514 151.33C8.51 151.33 2 144.817 2 136.813V72.169c0-8.002 6.51-14.514 14.514-14.514h106.833a4.583 4.583 0 0 1 0 9.167H16.514a5.356 5.356 0 0 0-5.348 5.347v64.644c0 2.95 2.401 5.348 5.348 5.348h96.902c2.95 0 5.35-2.399 5.35-5.348V82.417a4.581 4.581 0 1 1 9.164 0v54.396c0 8.004-6.51 14.517-14.514 14.517H16.514z"/>
            <path d="M140.575 100.65H123.27c-2.53 0-4.58-2.052-4.58-4.584 0-2.53 2.05-4.583 4.58-4.583h17.305a4.583 4.583 0 0 1 0 9.166M30.36 59.017a4.585 4.585 0 0 1-4.56-4.184l-.993-11.28c-2.56.128-5.604-.232-8.168-1.898-1.852-1.205-4.161-3.56-4.636-7.968-.484-4.434 1.468-9.24 5.644-13.896C25.008 11.583 41.607 2 64.159 2c22.546 0 39.145 9.583 46.51 17.789 4.178 4.655 6.132 9.462 5.648 13.9-.477 4.405-2.789 6.764-4.638 7.966-2.495 1.618-5.438 1.988-7.948 1.909a4.586 4.586 0 0 1-4.578 4.384l-.203-.005a4.583 4.583 0 0 1-4.377-4.779l.225-5.157a4.579 4.579 0 0 1 1.962-3.562 4.59 4.59 0 0 1 4.02-.604c1.678.524 4.769.872 5.913.122.107-.072.405-.266.514-1.264.184-1.7-1.072-4.238-3.361-6.788-6.585-7.339-21.412-14.745-39.687-14.745-18.28 0-33.103 7.406-39.69 14.748-2.286 2.547-3.538 5.085-3.354 6.785.11 1.003.405 1.195.517 1.269 1.211.79 4.439.345 5.906-.127a4.59 4.59 0 0 1 3.938.547 4.587 4.587 0 0 1 2.028 3.416l1.428 16.227A4.582 4.582 0 0 1 30.768 59l-.407.018"/>
        </g>
    </g>
</svg>
