<svg xmlns="http://www.w3.org/2000/svg" width="96" height="83" viewBox="0 0 96 83">
    <g fill="none" fill-rule="evenodd">
        <g fill="#FFF">
            <path d="M4.864 36.754c1.163 0 2.327.444 3.213 1.327L18.5 48.459l10.423-10.378a4.562 4.562 0 0 1 6.427 0 4.508 4.508 0 0 1 0 6.4L24.927 54.86c-3.54 3.53-9.309 3.53-12.854 0L1.65 44.48a4.516 4.516 0 0 1 0-6.4 4.558 4.558 0 0 1 3.214-1.326"/>
            <path d="M54.864.544c22.559 0 40.909 18.277 40.909 40.737 0 22.464-18.35 40.736-40.91 40.736-10.354 0-20.236-3.856-27.822-10.867a4.523 4.523 0 0 1-.241-6.4 4.57 4.57 0 0 1 6.427-.24c5.896 5.454 13.582 8.455 21.637 8.455 17.545 0 31.818-14.213 31.818-31.684 0-17.467-14.273-31.685-31.818-31.685-17.541 0-31.819 14.218-31.819 31.685 0 2.57.31 5.114.914 7.568a4.524 4.524 0 0 1-3.332 5.472c-2.436.62-4.9-.887-5.495-3.313a40.501 40.501 0 0 1-1.177-9.727c0-22.46 18.35-40.737 40.909-40.737"/>
        </g>
        <path d="M-10-20h120v120H-10z"/>
    </g>
</svg>
