<svg xmlns="http://www.w3.org/2000/svg" width="93" height="40" viewBox="0 0 93 40">
    <g fill="none" fill-rule="evenodd">
        <path d="M-4-10H96v60H-4z"/>
        <g stroke="#FFF" stroke-linecap="round" stroke-linejoin="round">
            <path stroke-width="3.5" d="M67.778 38h-11.52a4 4 0 0 1-3.478-2.025l-3.442-6.064a3 3 0 0 0-5.351.265l-2.417 5.446A4 4 0 0 1 37.913 38H6a4 4 0 0 1-4-4V4a2 2 0 0 1 2-2h84.8a2 2 0 0 1 2 2v30a4 4 0 0 1-4 4h-7.511"/>
            <g transform="translate(57.2 10.4)">
                <rect width="26.4" height="19.2" stroke-width="3.5" rx="4"/>
                <path stroke-width="2" d="M21.6 9.6v2.8a2 2 0 0 1-2 2h-2.8"/>
            </g>
            <g transform="translate(10.4 10.4)">
                <rect width="26.4" height="19.2" stroke-width="3.5" rx="4"/>
                <path stroke-width="2" d="M21.6 9.6v2.8a2 2 0 0 1-2 2h-2.8"/>
            </g>
        </g>
    </g>
</svg>
